<?xml version="1.0" encoding="utf-8"?>
<!-- Generator: Adobe Illustrator 19.0.0, SVG Export Plug-In . SVG Version: 6.00 Build 0)  -->
<svg version="1.0" id="Layer_1" xmlns="http://www.w3.org/2000/svg" xmlns:xlink="http://www.w3.org/1999/xlink" x="0px" y="0px"
	 width="1400px" height="980px" viewBox="0 0 1400 980" enable-background="new 0 0 1400 980" xml:space="preserve">
	 <style>
		#XMLID_232_ {
			animation: move-to-up 2s ease-in-out infinite alternate;
		}

		#XMLID_197_{
			animation: move-to-up 4s ease-in-out infinite alternate;
		}


	 	@keyframes move-to-up{
			 to {
				 transform: translate(0px, -6px)
			 }

		 }
	 </style>
<!-- <radialGradient id="XMLID_101_" cx="610.0045" cy="415.0038" r="687.0071" gradientTransform="matrix(1 0 0 0.8118 0 78.1218)" gradientUnits="userSpaceOnUse">
	<stop  offset="0" style="stop-color:#115A5D"/>
	<stop  offset="1" style="stop-color:#082829"/>
</radialGradient> -->
<rect id="XMLID_62_" x="35" y="28.8" fill="url(#XMLID_101_)" width="1330" height="922.3"/>
<ellipse id="XMLID_64_" fill="#081313" cx="800.8" cy="883.3" rx="457.2" ry="19.7"/>
<g id="XMLID_1_">
	<polygon id="XMLID_202_" opacity="0.23" fill="#FFFFFF" points="493.4,262.5 537.3,527.2 1008.9,527.1 573.5,207.1 	"/>
	<g id="XMLID_203_">
		<g id="XMLID_225_">
			<rect id="XMLID_231_" x="376.5" y="505.5" fill="#C74937" width="119.1" height="21.8"/>
			<rect id="XMLID_230_" x="376.5" y="507.5" fill="#F3F6D8" width="72.9" height="17.7"/>
			<rect id="XMLID_229_" x="452.7" y="505.5" fill="#933324" width="42.8" height="21.8"/>
			<path id="XMLID_228_" fill="#C74937" d="M485,521.1h-20c-2.7,0-4.8-2.2-4.8-4.8l0,0c0-2.7,2.2-4.8,4.8-4.8h20
				c2.7,0,4.8,2.2,4.8,4.8l0,0C489.8,519,487.6,521.1,485,521.1z"/>
			<rect id="XMLID_227_" x="376.5" y="511.5" fill="#BCC0AB" width="68" height="2.7"/>
			<rect d="XMLID_226_" x="376.5" y="518.5" fill="#BCC0AB" width="68" height="2.7"/>
		</g>
		<g id="XMLID_218_">
			<rect id="XMLID_224_" x="379.7" y="440.4" fill="#E88183" width="119.1" height="21.8"/>
			<rect id="XMLID_223_" x="379.7" y="442.4" fill="#FFFFFF" width="72.9" height="17.7"/>
			<rect id="XMLID_222_" x="455.9" y="440.4" fill="#AC6062" width="42.8" height="21.8"/>
			<path id="XMLID_221_" fill="#E88183" d="M488.2,456h-20c-2.7,0-4.8-2.2-4.8-4.8v0c0-2.7,2.2-4.8,4.8-4.8h20
				c2.7,0,4.8,2.2,4.8,4.8v0C493,453.9,490.8,456,488.2,456z"/>
			<rect id="XMLID_220_" x="379.7" y="446.4" fill="#C4C6C8" width="68" height="2.7"/>
			<rect id="XMLID_219_" x="379.7" y="453.3" fill="#C4C6C8" width="68" height="2.7"/>
		</g>
		<g id="XMLID_211_">
			<rect id="XMLID_217_" x="367.3" y="483.9" fill="#A6A26C" width="119.1" height="21.8"/>
			<rect id="XMLID_216_" x="367.3" y="485.9" fill="#F3F6D8" width="72.9" height="17.7"/>
			<rect id="XMLID_215_" x="443.6" y="483.9" fill="#7A7A50" width="42.8" height="21.8"/>
			<path id="XMLID_214_" fill="#A6A26C" d="M475.8,499.6h-20c-2.7,0-4.8-2.2-4.8-4.8v0c0-2.7,2.2-4.8,4.8-4.8h20
				c2.7,0,4.8,2.2,4.8,4.8v0C480.7,497.4,478.5,499.6,475.8,499.6z"/>
			<rect id="XMLID_213_" x="367.3" y="489.9" fill="#BCC0AB" width="68" height="2.7"/>
			<rect id="XMLID_212_" x="367.3" y="496.9" fill="#BCC0AB" width="68" height="2.7"/>
		</g>
		<g id="XMLID_204_">
			<rect id="XMLID_210_" x="373.1" y="462.1" fill="#9CA7CF" width="119.1" height="21.8"/>
			<rect id="XMLID_209_" x="373.1" y="464.2" fill="#F0F9FE" width="72.9" height="17.7"/>
			<rect id="XMLID_208_" x="449.3" y="462.1" fill="#757E9C" width="42.8" height="21.8"/>
			<path id="XMLID_207_" fill="#9CA7CF" d="M481.6,477.8h-20c-2.7,0-4.8-2.2-4.8-4.8v0c0-2.7,2.2-4.8,4.8-4.8h20
				c2.7,0,4.8,2.2,4.8,4.8v0C486.4,475.6,484.2,477.8,481.6,477.8z"/>
			<rect id="XMLID_206_" x="373.1" y="468.2" fill="#BAC2C8" width="68" height="2.7"/>
			<rect id="XMLID_205_" x="373.1" y="475.1" fill="#BAC2C8" width="68" height="2.7"/>
		</g>
	</g>
	<g id="XMLID_2_">
		<g id="XMLID_69_">
			<path id="XMLID_91_" fill="#E84140" d="M917.9,376.1h-156h0c-9.7,0-16.8,9.1-14.5,18.5c5.2,20.9,5.9,64.8-17.4,156.6
				c0,0-17.5,67.6,0,115.2h37.2c0,0-2.1-8.6-4.4-22.4h138L917.9,376.1z"/>
			<g id="XMLID_122_">
				<polygon id="XMLID_123_" fill="none" points="917.9,376.1 900.8,644 911.6,644 928.7,376.1 				"/>
				<path id="XMLID_124_" fill="none" d="M767.2,666.4h10.8c0,0-2.1-8.6-4.4-22.4h-10.8C765.1,657.8,767.2,666.4,767.2,666.4z"/>
				<path id="XMLID_129_" fill="#B93433" d="M772.7,376.1c-9.7,0-16.8,9.1-14.5,18.5c5.2,20.9,5.9,64.8-17.4,156.6
					c0,0-17.5,67.6,0,115.2h26.4c0,0-2.1-8.6-4.4-22.4h10.8h127.2l17.1-267.9H772.7z"/>
			</g>
			<path id="XMLID_88_" fill="#F15C4C" d="M923.2,666.4c0,0-14.2-58.1-9.8-115.2c4.4-57.1,36.3-175.2,4.5-175.2h-32.6
				c0,0,31.7,16.4,0.8,175.2c0,0-9.5,67.6,8,115.2H923.2z"/>
			<path id="XMLID_85_" fill="#F15F5D" d="M900.8,688.8H672.9c-12.3,0-22.4-10.1-22.4-22.4v0c0-12.3,10.1-22.4,22.4-22.4h227.9
				c12.3,0,22.4,10.1,22.4,22.4v0C923.2,678.7,913.1,688.8,900.8,688.8z"/>
			<path id="XMLID_71_" fill="#C43936" d="M901.3,688.8H684.7c-12,0-21.9-9.9-21.9-21.9v-1c0-12,9.9-21.9,21.9-21.9h216.6
				c12,0,21.9,9.9,21.9,21.9v1C923.2,679,913.4,688.8,901.3,688.8z"/>
			<path id="XMLID_86_" fill="#F15C4C" d="M900.8,688.8h-66.5c-12.3,0-22.4-10.1-22.4-22.4v0c0-12.3,10.1-22.4,22.4-22.4h66.5
				c12.3,0,22.4,10.1,22.4,22.4v0C923.2,678.7,913.1,688.8,900.8,688.8z"/>
		</g>
		<g id="XMLID_87_">
			<path id="XMLID_108_" fill="#3A4862" d="M829.2,700.9v8.9c0,0.4,0,0.7-0.1,1.1c-0.5,7-6.5,12.6-13.7,12.6h-46
				c-7.2,0-13.1-5.6-13.7-12.6c-0.1-0.4-0.1-0.7-0.1-1.1v-8.9c0-3.4,1.3-6.6,3.4-9c2.5-2.9,6.2-4.7,10.4-4.7h46
				c4.1,0,7.8,1.8,10.4,4.7C828,694.3,829.2,697.4,829.2,700.9z"/>
			<path id="XMLID_102_" fill="#263247" d="M829.2,700.9v8.9c0,0.4,0,0.7-0.1,1.1h-73.3c-0.1-0.4-0.1-0.7-0.1-1.1v-8.9
				c0-3.4,1.3-6.6,3.4-9h66.7C828,694.3,829.2,697.4,829.2,700.9z"/>
			<path id="XMLID_179_" fill="#6279A3" d="M761.3,710.9c-0.1-0.4-0.1-0.7-0.1-1.1v-8.9c0-3.4,1.3-6.6,3.4-9
				c2.5-2.9,6.2-4.7,10.4-4.7h-5.4c-4.1,0-7.8,1.8-10.4,4.7c-2.1,2.4-3.4,5.6-3.4,9v8.9c0,0.4,0,0.7,0.1,1.1
				c0.5,7,6.5,12.6,13.7,12.6h5.4C767.8,723.5,761.8,717.9,761.3,710.9z"/>
			<path id="XMLID_105_" fill="#3A4862" d="M883.4,690.2v3.3c0,0.5,0,1-0.1,1.4c-0.7,4.4-4.5,7.8-9,7.8H710.7c-4.6,0-8.4-3.4-9-7.8
				c-0.1-0.4-0.1-0.9-0.1-1.4v-3.3c0-5,4.1-9.2,9.2-9.2h163.6C879.3,681,883.4,685.2,883.4,690.2z"/>
			<path id="XMLID_103_" fill="#263247" d="M883.4,690.2v3.3c0,0.5,0,1-0.1,1.4H701.7c-0.1-0.4-0.1-0.9-0.1-1.4v-3.3
				c0-5,4.1-9.2,9.2-9.2h163.6C879.3,681,883.4,685.2,883.4,690.2z"/>
			<rect id="XMLID_90_" x="781.9" y="723.5" fill="#B9BFBC" width="24.1" height="63.8"/>
			<rect id="XMLID_120_" x="781.9" y="723.5" fill="#E5EDE9" width="4.9" height="63.8"/>
			<rect id="XMLID_176_" x="801.1" y="723.5" fill="#7E8281" width="4.9" height="63.8"/>
			<path id="XMLID_109_" fill="#263247" d="M811.9,785.6V827h-35.8v-41.3c0-5.8,4.7-10.4,10.4-10.4h15
				C807.2,775.2,811.9,779.9,811.9,785.6z"/>
			<path id="XMLID_106_" fill="#6279A3" d="M802.2,785.6V827h-26.1v-41.3c0-5.8,4.7-10.4,10.4-10.4h5.3
				C797.5,775.2,802.2,779.9,802.2,785.6z"/>
			<path id="XMLID_178_" fill="#3A4862" d="M792.1,775.2c-5.6,0.1-10.1,4.7-10.1,10.4V827h20.3v-41.3
				C802.2,780,797.7,775.4,792.1,775.2z"/>
			<polygon id="XMLID_94_" fill="#A1A7A5" points="776.1,827 670,845.5 670,857.5 792.5,845.5 792.5,827 			"/>
			<circle id="XMLID_92_" fill="#386B95" cx="667.4" cy="862.3" r="18"/>
			<polygon id="XMLID_95_" fill="#B9BFBC" points="792.5,827 740.3,844.4 740.3,862.3 792.5,845.5 			"/>
			<circle id="XMLID_96_" fill="#252A26" cx="740.3" cy="862.3" r="18"/>
			<polygon id="XMLID_99_" fill="#919795" points="808.9,827 915,845.5 915,857.5 792.5,845.5 792.5,827 			"/>
			<circle id="XMLID_98_" fill="#252A26" cx="917.6" cy="862.3" r="18"/>
			<polygon id="XMLID_93_" fill="#B9BFBC" points="792.5,827 844.7,844.4 844.7,862.3 792.5,845.5 			"/>
			<circle id="XMLID_89_" fill="#252A26" cx="844.7" cy="862.3" r="18"/>
			<polygon id="XMLID_97_" fill="#7E8281" points="806.1,723.5 781.9,723.5 781.9,738.4 806.1,734.5 			"/>
		</g>
	</g>
	<g id="XMLID_3_">
		<path id="XMLID_61_" fill="#D38050" d="M712.6,529.7l-62.1-15.4c0,0-11.2-0.1-15.6-2.8s2.3-38.5,25.3-25.6l67.4,15.4L712.6,529.7z
			"/>
		<path id="XMLID_59_" fill="#D38050" d="M617.9,484.7c0,0-2.9-9.1-0.4-18.6C620.1,456.7,629.7,481.8,617.9,484.7z"/>
		<g id="XMLID_125_">
			<polygon id="XMLID_174_" fill="#694F34" points="599,827 596.9,842.4 594.4,860.8 558,852.3 560.9,835.5 563.1,823 			"/>
			<path id="XMLID_173_" fill="#A67C52" d="M606.5,873c-0.8,3.4-2.9,6.2-7.5,7.4H484.3c0,0-1.9-3-2.7-7.4c-0.8-4-0.7-9.1,2.4-14.1
				c1.2-2,2.9-4,5.3-5.8l50.8-14.4l6-6.1l8.6,1.7l9.8,1.9c0,0-2.2,22.2,39.5,20.2C604,856.4,608.1,865.8,606.5,873z"/>
			<path id="XMLID_133_" fill="#6E5337" d="M606.5,873c-0.8,3.4-2.9,6.2-7.5,7.4H484.3c0,0-1.9-3-2.7-7.4H606.5z"/>
			<path id="XMLID_137_" fill="#C1915F" d="M554.7,834.3L544,844.6l-60.1,14.2c1.2-2,2.9-4,5.3-5.8l50.8-14.4l6-6.1L554.7,834.3z"/>
			<polygon id="XMLID_136_" fill="#453423" points="599,827 596.9,842.4 560.9,835.5 563.1,823 			"/>
		</g>
		<polygon id="XMLID_126_" fill="#D4D4D3" points="748.1,388.4 729.6,497.4 719.3,497.4 711.2,536.4 768.4,544 782,428.7 		"/>
		<polygon id="XMLID_117_" fill="#F2F3F3" points="742.7,465.6 748.1,388.4 733.1,468.9 		"/>
		<path id="XMLID_165_" fill="#736357" d="M884.7,603.2c-0.7,4.9-1.1,7.6-1.1,7.6L754,597.9l-5.8-0.6c6.1-37.8,8.3-72.8,8.5-102.9
			c0.4-53.5-5.8-91.5-7.8-102.6c-0.4-2.2-0.7-3.4-0.7-3.4l32.7-24.2l0.4-0.3l39.1-7.4l9.6,3.6l39,14.6c0.7,1.6,1.4,3.2,2,4.9
			c3.4,8.7,6.3,18,8.6,27.5C898.3,482,888.2,576,884.7,603.2z"/>
		<path id="XMLID_166_" fill="#5C5046" d="M884.9,602c0,0.4-0.1,0.8-0.1,1.1l-5-0.2L754,597.9l-5.8-0.6c0.7-4.3,1.3-8.5,1.9-12.6
			l0,0c4.7-33,6.4-63.5,6.5-90.2l2.2-6.2l50.6,2.8l-1.3-8.8l30.9,1.5c10.2-21.4,7.2-74,7.2-74l33.2-2.5c5.9,23.5,9,48.9,10.4,73.4
			C892.6,533.3,887.4,582.5,884.9,602z"/>
		<path id="XMLID_145_" fill="#453C34" d="M884.9,602l-5.2,0.9L754,597.9l-5.8-0.6c0.7-4.3,1.3-8.5,1.9-12.6l0,0l95.7-14.7l13-96
			l31,6.6C892.6,533.3,887.4,582.5,884.9,602z"/>
		<path id="XMLID_146_" fill="#453C34" d="M780.8,364.2l-1.3,7.9l-30.7,19.7c-0.4-2.2-0.7-3.4-0.7-3.4L780.8,364.2z"/>
		<path id="XMLID_159_" fill="#453C34" d="M870.8,379.6l-5,4.5l-37.4-17.6l1.4-6.5l39,14.6C869.5,376.3,870.1,377.9,870.8,379.6z"/>
		<path id="XMLID_168_" fill="#E1E1E0" d="M894.1,527.2l-19.3,0l-33-0.1c0,0,5.4-9.2,9-27.2c4-19.7,5.6-50-4.7-90.2
			c0,0,1-19.2,11.7-29.3c2.9-2.7,6.5-4.8,10.9-5.7C868.8,374.7,905,408.5,894.1,527.2z"/>
		<path id="XMLID_150_" fill="#FFFFFF" d="M853.5,501.1l-2.6-1.2c4-19.7,5.6-50-4.7-90.2C846.2,409.6,872.5,448.1,853.5,501.1z"/>
		<path id="XMLID_162_" fill="#BABABA" d="M894.1,527.2l-19.3,0l-2.2-5.7c25.7-93.1-14.8-141.1-14.8-141.1c2.9-2.7,6.5-4.8,10.9-5.7
			C868.8,374.7,905,408.5,894.1,527.2z"/>
		<path id="XMLID_118_" fill="#161312" d="M748.1,587.9c0,0,74.4,0,138.3,0c0,0,8.4,40.1-11.1,54.4H733.1L748.1,587.9z"/>
		<g id="XMLID_127_">
			<polygon id="XMLID_175_" fill="#694F34" points="738.4,827 737.7,842.3 736.8,860.8 700.3,852.3 700.8,841.7 701.5,823 			"/>
			<polygon id="XMLID_135_" fill="#543F2A" points="738.4,827 737.7,842.3 700.8,841.7 701.5,823 			"/>
			<path id="XMLID_172_" fill="#A67C52" d="M748.8,873c-0.8,3.4-2.9,6.2-7.5,7.4H626.6c0,0-1.9-3-2.7-7.4c-0.5-2.8-0.7-6,0.3-9.4
				c1-3.5,3.2-7.2,7.4-10.5l50.8-14.4l6-6.1l4.3,0.8l14.2,2.8c0,0-2.2,22.2,39.5,20.2C746.4,856.4,750.5,865.8,748.8,873z"/>
			<path id="XMLID_128_" fill="#6E5337" d="M748.8,873c-0.8,3.4-2.9,6.2-7.5,7.4H626.6c0,0-1.9-3-2.7-7.4H748.8z"/>
			<path id="XMLID_138_" fill="#C1915F" d="M692.7,833.4l-7.8,11.2l-60.7,18.9c1-3.5,3.2-7.2,7.4-10.5l50.8-14.4l6-6.1L692.7,833.4z
				"/>
		</g>
		<polygon id="XMLID_121_" fill="#161312" points="748.1,587.9 621.6,597.8 630.4,654.8 747.3,644.6 		"/>
		<path id="XMLID_171_" fill="#2E2724" d="M886.5,587.9l-11.1,54.4l-120,8l-7.3,185.9h-61.8c0,0,1.8-159.1,6.2-203
			c3.6-35.3,37.6-39.4,50.9-39.7l75.1-5.6H886.5z"/>
		<path id="XMLID_164_" fill="#5A4F4A" d="M746.6,593.5c-40.8,3.2-45,39.3-45,39.3l-3.8,201.6l0.3,1.8h-11.7c0,0,1.8-159.1,6.2-203
			C696.5,594.7,736.7,593.2,746.6,593.5z"/>
		<path id="XMLID_140_" fill="#181513" d="M886.5,587.9l-11.1,54.4l-120,8l-7.3,185.9h-9.7l14-214.9l3.4,17.9l83.9-6.4
			c0,0,21.9-13.3,9.9-44.9H886.5z"/>
		<polygon id="XMLID_139_" fill="#E1E1E0" points="779.5,359.9 771.8,379.8 793.6,401.4 785.5,374.3 		"/>
		<polygon id="XMLID_143_" fill="#B3B3B3" points="771.8,379.8 771.8,395 779.5,387.4 		"/>
		<polygon id="XMLID_144_" fill="#B3B3B3" points="828.4,348 808.8,348 823.7,368.2 		"/>
		<polygon id="XMLID_163_" fill="#F2A77C" points="823.7,362.6 804.9,382 793.6,401.4 793.4,400.8 782.7,376.4 781.2,364 
			777.7,355.7 774.8,348.7 779.6,346.4 810.5,331.6 816.9,346.5 		"/>
		<g id="XMLID_55_">
			<path id="XMLID_45_" fill="#E8E5D1" d="M615.2,424.2c0,0,38.2-37.4,89-27.7l-6.4,9.1c0,0-50.1-4.6-78.8,31.2c0,0-8.8,3-12.7-3.8
				c0,0,4.3-17-20.5-17.4l8.6-6.4C594.3,409.2,612.6,407,615.2,424.2z"/>
			<path id="XMLID_6_" fill="#2C5576" d="M697.8,405.6c0,0-49.2-6.6-78.8,23.8v4.7c0,0,27.2-25.2,76.9-24.5L697.8,405.6z"/>
			<path id="XMLID_5_" fill="#386B95" d="M618.9,434.1l63.8,89.6c0,0,28.5-27.2,68.6-23.6l-55.5-90.5
				C695.8,409.5,646.7,404.4,618.9,434.1z"/>
			<polygon id="XMLID_7_" fill="#2C5576" points="751.3,500 754.3,498.3 697.8,405.6 695.8,409.5 			"/>
			<path id="XMLID_44_" fill="#264A66" d="M580.4,418.2l66.5,95c0,0,11.7,0.4,20.1,11.2l-59.5-87.7
				C607.4,436.8,609.6,410.9,580.4,418.2z"/>
			<path id="XMLID_27_" fill="#2E587B" d="M682.8,523.7c0,0-8.4,6.5-15.8,0.8l-62.2-86.9c0,0,6.4,1.5,14.2-3.5L682.8,523.7z"/>
			<path id="XMLID_28_" fill="#2C5576" d="M618.9,429.4c0,0-7.4,5.2-12.7,3.6l-1.5,4.7c0,0,8,2.3,14.2-3.5V429.4z"/>
			<path id="XMLID_29_" fill="#2E587B" d="M606.2,433c0,0,0.3-20.4-25.9-14.7l3.4-3c0,0,24.5-6.3,25.8,18
				C609.6,433.2,607.5,434.9,606.2,433z"/>
			<polygon id="XMLID_43_" fill="#CEC8A3" points="704.2,396.5 757.5,487.9 751.7,494.1 697.8,405.6 			"/>
		</g>
		<path id="XMLID_157_" fill="#D38050" d="M823.7,362.6L804.9,382l-11.2,19.4l20.5-38.5l-5.4-12.3c-14.4,8.8-31.1,4.9-31.1,4.9
			l1.9-9.2l30.9-14.7l6.4,14.8L823.7,362.6z"/>
		<g id="XMLID_119_">
			<path id="XMLID_161_" fill="#FAB187" d="M792.5,352.6c-4.4,1.1-8.5,2-12.5,2.6c-1.4,0.3-2.3,0.4-2.3,0.4
				c-37.4,5.2-54.6-12.9-50.6-36c4.5-25.9-8.8-43.7-8.8-43.7c-11.8-23.9-16.2-52.3,13.5-69.4c6.6-3.9,15-7.2,25.4-9.7
				c27.1-6.7,43.5,5.2,53.2,19.3c10.6,15.4,13.3,33.4,13.3,33.4S846.2,338.4,792.5,352.6z"/>
			<path id="XMLID_153_" fill="#E69465" d="M792.5,352.6c-4.4,1.1-8.5,2-12.5,2.6c7.8-1.5,32.8-8.6,33.2-38.5
				c0.5-35.6-7.9-64.3-25.9-62.3c-17.9,1.9-55,14.4-69.8-10.1c0,0-4.8,10.4,0.9,31.6c-11.8-23.9-16.2-52.3,13.5-69.4h49.3l29.4,9.6
				c10.6,15.4,13.3,33.4,13.3,33.4S846.2,338.4,792.5,352.6z"/>
			<path id="XMLID_56_" fill="#503423" d="M740.6,302.3L740.6,302.3c-3,0.9-6.2-0.9-7-3.9l-2.2-7.9c-0.9-3,0.9-6.2,3.9-7l0,0
				c3-0.9,6.2,0.9,7,3.9l2.2,7.9C745.4,298.3,743.6,301.5,740.6,302.3z"/>
			<path id="XMLID_110_" fill="#503423" d="M776.3,295L776.3,295c-3.1,0.5-6.1-1.6-6.6-4.7l-1.3-8.1c-0.5-3.1,1.6-6.1,4.7-6.6l0,0
				c3.1-0.5,6.1,1.6,6.6,4.7l1.3,8.1C781.6,291.5,779.4,294.4,776.3,295z"/>
			<circle id="XMLID_107_" fill="#B38062" cx="737.7" cy="289.3" r="2.9"/>
			<circle id="XMLID_112_" fill="#B38062" cx="774.8" cy="280.4" r="2.9"/>
			<path id="XMLID_111_" fill="#402312" d="M762.6,266.5c0,0,8.1-11.1,21.9-4.3l2.9-7.9c0,0-19.1-8.1-29.7,7.2L762.6,266.5z"/>
			<path id="XMLID_114_" fill="#402312" d="M741.7,271.7c0,0-11.2-6.5-17.7,4.9l-5.9-5.8c0,0,9.6-14.7,24.7-5.4L741.7,271.7z"/>
			<path id="XMLID_160_" fill="#402312" d="M840.6,259.8c-4.3-3.6-11.2-2.5-12.1-2.3c0,0-0.1,0-0.1,0c-14.7,5.3-12.7,19.9-12.7,19.9
				c0,3.6-4.6,0.1-4.6,0.1c-0.7-26.4-26.8-28.5-56.2-27.3c-27.6,1.2-37.2-19.4-38.3-21.9c0-0.2-0.1-0.3-0.1-0.3
				c-10.1,20.5,1.3,46.4,1.8,47.8c0,0,0,0,0,0s-26.8-4-26.9-36.1c-0.1-28.5,14.1-36,15-36.5l0,0c28.2-56.9,98.1-33.4,98.1-33.4
				s-6.5-12.4,5.9-11.1c11.6,1.2,3.8,13.2,2.8,14.8c1.4-1.2,10.1-8.2,14.2,0.2c4.6,9.2-7,6.5-7,6.5
				C861,197.8,840.6,259.8,840.6,259.8z"/>
			<path id="XMLID_155_" fill="#301B10" d="M840.6,259.8c-4.3-3.6-11.2-2.5-12.1-2.3c3.1-12.6,4.7-38.9-19.7-58.1
				c-32.3-25.4-80-21.6-102.2,3.9c28.2-56.9,98.1-33.4,98.1-33.4s-6.5-12.4,5.9-11.1c11.6,1.2,3.8,13.2,2.8,14.8
				c1.4-1.2,10.1-8.2,14.2,0.2c4.6,9.2-7,6.5-7,6.5C861,197.8,840.6,259.8,840.6,259.8z"/>
			<path id="XMLID_37_" fill="#E69465" d="M816,269.1c0,0,4.3-20.4,21.9-11.1c17.6,9.3,4.1,46.4-14.2,40.8
				C823.8,298.8,813.6,291.4,816,269.1z"/>
			<path id="XMLID_57_" fill="#C97544" d="M830.9,285.3c0,0-6.3,0.1-3.9-9.4c2.3-9.5,8.5-9.1,11.3-6.2
				C841.2,272.5,836.5,284.2,830.9,285.3z"/>
			<path id="XMLID_113_" fill="#D38050" d="M748.6,314.4c0,0,4.8,6,14-1.2l1.5,2.7c0,0-9.9,8.7-16.8,1.1L748.6,314.4z"/>
			<path id="XMLID_115_" fill="#D38050" d="M748.4,330.6c0,0,17.3,6.4,30.9-4.4l2.7,3.4c0,0-14.2,12.9-34.8,4.5L748.4,330.6z"/>
			<path id="XMLID_156_" fill="#8D4C24" d="M811.1,277.5c-0.7-26.4-26.8-28.5-56.2-27.3c-27.6,1.2-37.2-19.4-38.3-21.9
				c0-0.1-0.1-0.2-0.1-0.3c-3.1-12.7,0-21.6,0-21.6c3.8,44.8,48.9,33.4,77.2,38.8C821.9,250.7,811.1,277.5,811.1,277.5z"/>
			<path id="XMLID_154_" fill="#8D4C24" d="M718.4,275.9c0,0-26.8-4-26.9-36.1c-0.1-28.5,14.1-36,15-36.5
				C683.6,248.3,716.7,274.6,718.4,275.9C718.4,275.9,718.4,275.9,718.4,275.9z"/>
		</g>
		<path id="XMLID_170_" fill="#161312" d="M644.1,648.2l-37,190.5l-49.2-7.6l-11.9-1.8c0,0,24.8-149.7,36.3-196.5v-0.1
			c0.3-1.1,0.5-2.1,0.8-3.1c11-42.7,61.5-30.6,61.5-30.6C661.4,603.9,644.1,648.2,644.1,648.2z"/>
		<path id="XMLID_132_" fill="#FFFFFF" d="M867.6,496.5l-31.4-4.6l-3.3,35.2l48.5,0.1C881.3,527.2,883.8,500.3,867.6,496.5z"/>
		<path id="XMLID_70_" fill="#F2A77C" d="M812.2,520.6l-50.8-7c-54.2,10.8-65.2-25.4-65.5-26.3c0,0,0,0,0,0l0.7-1.3l-2.5-3.8
			l1.8-1.7l-3.3-3.4c1.4-1.9,7.4-5.9,11.7-2.2c4,3.5,10.9,6.6,11.8,6.9c-6.8-3.9-14.5-15.4-14.5-15.4s7.1-6.1,16.9,4.4
			c9.8,10.5,31.1,11,31.1,11c0.7-5.9-1-4.6-5.8-11c-4.7-6.4,2.9-10.7,2.9-10.7c3,6.5,7.7,8.8,7.7,8.8c11.4,6,12.8,19.7,12.8,19.7
			l36.6,4.2l10.5,1.2C815.5,504.8,812.2,520.6,812.2,520.6z"/>
		<path id="XMLID_134_" fill="#E1E1E0" d="M813.6,486.2c0,0,3,18.7-2.9,41h41.5c0,0,12.3-17.1,3.1-35.3
			C855.3,491.9,834.7,484.4,813.6,486.2z"/>
		<polygon id="XMLID_116_" fill="#E1E1E0" points="828.4,348 804.9,382 816.9,401.4 836.8,360.4 		"/>
		<path id="XMLID_158_" fill="#FDD6C0" d="M777.7,355.6c-37.4,5.2-54.6-12.9-50.6-36c4.5-25.9-8.8-43.7-8.8-43.7
			c22.3,21.9,8.8,35.2,15.5,59.4C740.3,358.3,777.7,355.6,777.7,355.6z"/>
		<path id="XMLID_58_" fill="#FDD6C0" d="M753.9,314.4c0,0-4.7-2.8-2.1-9.2C751.8,305.2,743.7,312.9,753.9,314.4z"/>
		<polygon id="XMLID_152_" fill="#FDD6C0" points="793.6,400.3 793.4,400.8 782.7,376.4 781.2,364 777.7,355.7 777.7,355.6 
			784.5,364.3 785.9,371.4 		"/>
		<path id="XMLID_167_" fill="#524844" d="M582.3,632.8L558,831.1l-11.9-1.8C546.1,829.3,570.9,679.6,582.3,632.8z"/>
		<path id="XMLID_67_" fill="#D38050" d="M812.2,520.6l-50.8-7c-54.2,10.8-65.2-25.4-65.5-26.3c21,32.5,66.5,19.3,66.5,19.3
			l40.8,5.9c2.3-5.7,1.3-14.9,0.5-19.6l10.5,1.2C815.5,504.8,812.2,520.6,812.2,520.6z"/>
		<path id="XMLID_60_" fill="#F2A77C" d="M617.9,484.7c0,0,4.5-13.2,10.4-10.4s2.2,6.5,2.2,6.5s3.4-3.6,5.6,0
			c2.2,3.6,1.4,8.5,1.4,8.5s2.5-2.5,4.5,1.1c2,3.6,0,7.3,0,7.3s2.2-1.5,3.4,1.5s1.4,7-5,12.2C633.9,516.6,614.6,495,617.9,484.7z"/>
		<g id="XMLID_65_">
			<path id="XMLID_66_" opacity="0.47" fill="#FFFFFF" d="M723.2,295c0,0,0.2,6.1,6,10.4c0,0,7.8,1.1,19.5-2.9c0,0,1.6-4.9,0.6-13.3
				C749.4,289.3,731,288.6,723.2,295z"/>
			<path id="XMLID_68_" opacity="0.47" fill="#FFFFFF" d="M758.2,287.6c0,0,1.1,8.5,3.9,13.2c0,0,11.5,1.7,26.2-3.5
				c0,0,2.6-4.4,0.9-15.1C789.3,282.2,774.6,280.8,758.2,287.6z"/>
			<path id="XMLID_151_" fill="#3C2415" d="M789.7,278.2c0,0-19.4,0.1-31.5,6.4l0,0c-3.7,1.7-7.7,1.4-7.7,1.4
				c-20.8-1.4-29,6.9-29,6.9l-0.3,0.2c-1.1,0.7-1.5,2.1-1.1,3.3c2.7,7,7.8,11,7.8,11c12.6,1.1,22.1-3.2,22.1-3.2s2.9-4.9,2.4-13.5
				c0.9-1.2,2-1.2,3-0.9c1.8,8.9,5.1,13.5,5.1,13.5s13.6,1.4,29.2-3.9c0,0,1.3-1,1.7-2.9c0,0,1.1-3.5,1-9.7c-0.1-2.8,1.7-5.3,4.4-6
				l17.6-4.9v-4L789.7,278.2z M729.2,305.4c-6.4-5.5-6-10.4-6-10.4c8.4-6.1,26.1-5.8,26.1-5.8s0.7,8.3-0.6,13.3
				C739,306,729.2,305.4,729.2,305.4z M762.2,300.8c-2.5-4.2-3.9-13.2-3.9-13.2s14.3-6.5,31-5.4c0,0,1.7,11.3-0.9,15.1
				C788.4,297.3,776.3,301.5,762.2,300.8z"/>
		</g>
	</g>
	<g id="XMLID_84_">
		<rect id="XMLID_72_" x="343.6" y="527.1" fill="#E98F4A" width="665.2" height="22"/>
		<rect id="XMLID_78_" x="841.8" y="527.1" fill="#AF6C36" width="167" height="22"/>
		<rect id="XMLID_73_" x="378.5" y="549.1" fill="#B9BFBC" width="17.5" height="331.2"/>
		<rect id="XMLID_74_" x="378.5" y="549.1" fill="#888D8C" width="17.5" height="20.8"/>
		<rect id="XMLID_75_" x="475.5" y="549.1" fill="#939897" width="17.5" height="331.2"/>
		<rect id="XMLID_77_" x="475.5" y="549.1" fill="#696E6E" width="17.5" height="20.8"/>
		<rect id="XMLID_76_" x="396" y="806.3" fill="#A3A9A7" width="97" height="16.7"/>
		<rect id="XMLID_83_" x="865.8" y="549.1" fill="#B9BFBC" width="17.5" height="331.2"/>
		<rect id="XMLID_82_" x="865.8" y="549.1" fill="#888D8C" width="17.5" height="20.8"/>
		<rect id="XMLID_81_" x="962.8" y="549.1" fill="#939897" width="17.5" height="331.2"/>
		<rect id="XMLID_80_" x="962.8" y="549.1" fill="#696E6E" width="17.5" height="20.8"/>
		<rect id="XMLID_79_" x="883.2" y="806.3" fill="#A3A9A7" width="97" height="16.7"/>
	</g>
	<g id="XMLID_201_">
		<g id="XMLID_35_">
			<rect id="XMLID_25_" x="881.1" y="505.5" fill="#C74937" width="119.1" height="21.8"/>
			<rect id="XMLID_31_" x="881.1" y="507.5" fill="#F3F6D8" width="72.9" height="17.7"/>
			<rect id="XMLID_26_" x="957.4" y="505.5" fill="#933324" width="42.8" height="21.8"/>
			<path id="XMLID_33_" fill="#C74937" d="M989.6,521.1h-20c-2.7,0-4.8-2.2-4.8-4.8l0,0c0-2.7,2.2-4.8,4.8-4.8h20
				c2.7,0,4.8,2.2,4.8,4.8l0,0C994.4,519,992.3,521.1,989.6,521.1z"/>
			<rect id="XMLID_34_" x="881.1" y="511.5" fill="#BCC0AB" width="68" height="2.7"/>
			<rect id="XMLID_36_" x="881.1" y="518.5" fill="#BCC0AB" width="68" height="2.7"/>
		</g>
		<g id="XMLID_232_"><!--  livro vermelho  -->
			<rect id="XMLID_238_" x="879.8" y="418.6" fill="#C74937" width="119.1" height="21.8"/>
			<rect id="XMLID_237_" x="879.8" y="420.6" fill="#F3F6D8" width="72.9" height="17.7"/>
			<rect id="XMLID_236_" x="956.1" y="418.6" fill="#933324" width="42.8" height="21.8"/>
			<path id="XMLID_235_" fill="#C74937" d="M988.3,434.3h-20c-2.7,0-4.8-2.2-4.8-4.8l0,0c0-2.7,2.2-4.8,4.8-4.8h20
				c2.7,0,4.8,2.2,4.8,4.8l0,0C993.2,432.1,991,434.3,988.3,434.3z"/>
			<rect id="XMLID_234_" x="879.8" y="424.6" fill="#BCC0AB" width="68" height="2.7"/>
			<rect id="XMLID_233_" x="879.8" y="431.6" fill="#BCC0AB" width="68" height="2.7"/>
		</g>
		<g id="XMLID_188_">
			<rect id="XMLID_194_" x="884.3" y="440.4" fill="#E88183" width="119.1" height="21.8"/>
			<rect id="XMLID_193_" x="884.3" y="442.4" fill="#FFFFFF" width="72.9" height="17.7"/>
			<rect id="XMLID_192_" x="960.6" y="440.4" fill="#AC6062" width="42.8" height="21.8"/>
			<path id="XMLID_191_" fill="#E88183" d="M992.8,456h-20c-2.7,0-4.8-2.2-4.8-4.8v0c0-2.7,2.2-4.8,4.8-4.8h20
				c2.7,0,4.8,2.2,4.8,4.8v0C997.6,453.9,995.5,456,992.8,456z"/>
			<rect id="XMLID_190_" x="884.3" y="446.4" fill="#C4C6C8" width="68" height="2.7"/>
			<rect id="XMLID_189_" x="884.3" y="453.3" fill="#C4C6C8" width="68" height="2.7"/>
		</g>
		<g id="XMLID_38_">
			<rect id="XMLID_47_" x="872" y="483.9" fill="#A6A26C" width="119.1" height="21.8"/>
			<rect id="XMLID_46_" x="872" y="485.9" fill="#F3F6D8" width="72.9" height="17.7"/>
			<rect id="XMLID_42_" x="948.2" y="483.9" fill="#7A7A50" width="42.8" height="21.8"/>
			<path id="XMLID_41_" fill="#A6A26C" d="M980.5,499.6h-20c-2.7,0-4.8-2.2-4.8-4.8v0c0-2.7,2.2-4.8,4.8-4.8h20
				c2.7,0,4.8,2.2,4.8,4.8v0C985.3,497.4,983.1,499.6,980.5,499.6z"/>
			<rect id="XMLID_40_" x="872" y="489.9" fill="#BCC0AB" width="68" height="2.7"/>
			<rect id="XMLID_39_" x="872" y="496.9" fill="#BCC0AB" width="68" height="2.7"/>
		</g>
		<g id="XMLID_48_">
			<rect id="XMLID_54_" x="877.7" y="462.1" fill="#9CA7CF" width="119.1" height="21.8"/>
			<rect id="XMLID_53_" x="877.7" y="464.2" fill="#F0F9FE" width="72.9" height="17.7"/>
			<rect id="XMLID_52_" x="954" y="462.1" fill="#757E9C" width="42.8" height="21.8"/>
			<path id="XMLID_51_" fill="#9CA7CF" d="M986.2,477.8h-20c-2.7,0-4.8-2.2-4.8-4.8v0c0-2.7,2.2-4.8,4.8-4.8h20
				c2.7,0,4.8,2.2,4.8,4.8v0C991,475.6,988.9,477.8,986.2,477.8z"/>
			<rect id="XMLID_50_" x="877.7" y="468.2" fill="#BAC2C8" width="68" height="2.7"/>
			<rect id="XMLID_49_" x="877.7" y="475.1" fill="#BAC2C8" width="68" height="2.7"/>
		</g>
	</g>
	<g id="XMLID_197_"> 	<!-- caneca -->
		<path id="XMLID_200_" fill="#B35B48" d="M852.9,466.2h-26.7c-8.4,0-15.3,6.8-15.3,15.3V499c0,8.4,6.8,15.3,15.3,15.3h26.7
			c8.4,0,15.3-6.8,15.3-15.3v-17.6C868.2,473,861.3,466.2,852.9,466.2z M857.8,499.6c0,3.3-2.7,6-6,6h-24.6c-3.3,0-6-2.7-6-6v-18.8
			c0-3.3,2.7-6,6-6h24.6c3.3,0,6,2.7,6,6V499.6z"/>
		<rect id="XMLID_187_" x="784.8" y="453.3" fill="#B35B48" width="57.2" height="73.8"/>
		<rect id="XMLID_196_" x="827.1" y="453.3" fill="#94473B" width="14.9" height="73.8"/>
		<rect id="XMLID_195_" x="784.8" y="453.3" fill="#D06F55" width="14.3" height="73.8"/>
	</g>
	<g id="XMLID_4_">
		<g id="XMLID_8_">
			
				<rect id="XMLID_11_" x="379.9" y="317.2" transform="matrix(0.938 -0.3467 0.3467 0.938 -114.7552 158.9088)" fill="#5273A4" width="13.7" height="165.9"/>
			
				<rect id="XMLID_17_" x="409.1" y="180.4" transform="matrix(0.7153 0.6988 -0.6988 0.7153 302.467 -215.6762)" fill="#5273A4" width="13.7" height="165.9"/>
			<g id="XMLID_9_">
				<circle id="XMLID_10_" fill="#30435F" cx="417.8" cy="485.2" r="19.8"/>
				<circle id="XMLID_12_" fill="#7299CD" cx="417.8" cy="485.2" r="7.6"/>
			</g>
			<g id="XMLID_14_">
				<circle id="XMLID_16_" fill="#30435F" cx="359.7" cy="320" r="19.8"/>
				<circle id="XMLID_15_" fill="#7299CD" cx="359.7" cy="320" r="7.6"/>
			</g>
			<g id="XMLID_22_">
				<circle id="XMLID_24_" fill="#30435F" cx="473.3" cy="205.3" r="19.8"/>
				<circle id="XMLID_23_" fill="#7299CD" cx="473.3" cy="205.3" r="7.6"/>
			</g>
			<path id="XMLID_13_" fill="#5273A4" d="M468.1,527.2H363.7v0c0-10.2,8.3-18.5,18.5-18.5h67.4C459.9,508.8,468.1,517,468.1,527.2
				L468.1,527.2z"/>
			<rect id="XMLID_18_" x="387.2" y="486.2" fill="#425C83" width="61.3" height="22.5"/>
			<g id="XMLID_19_">
				<path id="XMLID_32_" fill="#405B84" d="M573.5,207.2l-80.1,55.4c-15.3-22.1-9.8-52.4,12.3-67.8c9.4-6.5,20.4-9.3,31-8.5
					C551,187.3,564.8,194.5,573.5,207.2z"/>
				<path id="XMLID_30_" fill="#5273A4" d="M573.5,207.2l-67.2,46.5c-12.6-18.2-4.8-45.2,17.3-60.5c4.2-2.9,8.6-5.2,13.1-6.8
					C551,187.3,564.8,194.5,573.5,207.2z"/>
				
					<rect id="XMLID_20_" x="481.2" y="159.1" transform="matrix(0.8224 -0.5689 0.5689 0.8224 -11.2938 309.9724)" fill="#5273A4" width="19.2" height="28"/>
				<path id="XMLID_21_" fill="#5A7EB4" d="M526.3,187.2l-35,24.2l-6.6-9.6c-3.7-5.4-2.4-12.7,3-16.4l15.6-10.8
					c5.4-3.7,12.7-2.4,16.4,3L526.3,187.2z"/>
				
					<ellipse id="XMLID_63_" transform="matrix(0.5094 -0.8605 0.8605 0.5094 93.0098 567.5753)" fill="#7299CD" cx="544.3" cy="202.2" rx="8.8" ry="11.6"/>
			</g>
		</g>
	</g>
</g>
</svg>
