<?xml version="1.0" encoding="utf-8"?>
<!-- Generator: Adobe Illustrator 16.0.0, SVG Export Plug-In . SVG Version: 6.00 Build 0)  -->
<!DOCTYPE svg PUBLIC "-//W3C//DTD SVG 1.1//EN" "http://www.w3.org/Graphics/SVG/1.1/DTD/svg11.dtd">
<svg version="1.1" xmlns="http://www.w3.org/2000/svg" xmlns:xlink="http://www.w3.org/1999/xlink" x="0px" y="0px" width="1400px"
	 height="980px" viewBox="0 0 1400 980" enable-background="new 0 0 1400 980" xml:space="preserve">
<g id="BACKGROUND">
	<rect y="0" fill="#FFFFFF" width="1400" height="980"/>
</g>
<g id="OBJECTS">
	<g>
		<path fill="#F3EDF1" d="M530.509,184.11c-38.105,17.141-74.806,37.905-107.115,64.4c-20.092,16.477-38.35,35.05-56.563,53.583
			c-60.809,61.875-121.618,123.749-182.427,185.623c-17.285,17.588-34.693,35.328-48.147,55.994
			C90.358,614.215,99.012,712.125,146.6,781.502s128.348,111.495,211.415,124.826c83.066,13.332,168.458,0.307,249.231-23.22
			c48.533-14.137,95.964-32.051,141.724-53.527c42.921-20.146,84.93-43.623,131.123-54.313
			c49.531-11.464,101.104-7.599,151.938-6.667c39.308,0.72,78.647-0.356,117.857-3.225c36.321-2.657,75.107-7.949,102.24-32.242
			c24.567-21.994,34.86-55.378,44.095-87.032c10.222-35.035,20.518-71.99,12.166-107.518c-4.546-19.336-14.376-36.952-24.092-54.277
			c-43.87-78.237-87.74-156.473-131.611-234.71c-22.141-39.484-46.33-75.242-92.354-87.833
			c-34.818-9.525-72.61-15.39-108.103-22.762c-90.224-18.742-184.197-19.145-274.624-1.477
			C627.019,147.407,577.523,162.962,530.509,184.11z"/>
		<g>
			<defs>
				<path id="SVGID_1_" d="M1279.672,571.155c-9.224-34.009-30.172-63.047-48.89-92.332c-18.256-28.561-38.216-38.032-34.357-75.56
					c4.713-45.839,5.592-89.903,0.837-135.529c-4.333-41.565-40.057-80.518-73.007-102.993
					c-37.107-25.312-81.357-38.5-125.83-44.814c-98.681-14.012-201.77,5.062-288.904,53.453
					c-31.065,17.253-60.129,38.087-92.061,53.68c-70.425,34.389-148.438,42.223-223.836,59.639
					c-39.318,9.082-78.88,18.243-115.967,34.147s-71.949,39.094-95.768,71.668c-30.365,41.527-40.353,94.747-41.185,146.185
					c-0.97,59.996,9.562,120.129,30.62,176.306c8.453,22.549,17.042,50.941,34.042,68.092
					c19.176,19.346,43.778,35.572,68.089,47.621c90.751,44.974,200.622,39.076,295.27,3.017
					c34.94-13.312,68.383-30.481,103.857-42.298c77.793-25.913,163.048-24.904,242.704-5.454
					c33.581,8.2,66.454,19.602,100.612,24.909c61.698,9.588,125.696-1.36,182.972-26.221c15.587-6.766,31.047-14.769,42.83-27.011
					c15.793-16.408,23.512-38.816,29.707-60.731C1282.98,655.987,1290.808,612.217,1279.672,571.155z"/>
			</defs>
			<clipPath id="SVGID_2_">
				<use xlink:href="#SVGID_1_"  overflow="visible"/>
			</clipPath>
			<rect x="65.055" y="45.968" clip-path="url(#SVGID_2_)" fill="#F9BC90" width="1271.197" height="890.588"/>
			<rect x="141.28" y="725.483" clip-path="url(#SVGID_2_)" fill="#6B412F" width="1132.969" height="207.498"/>
			<rect x="141.28" y="782.335" clip-path="url(#SVGID_2_)" fill="#84563D" width="1132.969" height="150.646"/>
			<g clip-path="url(#SVGID_2_)">
				<g>
					<path fill="#F9CBAC" d="M303.384,558.565h36.92c5.56,0,10.109,4.55,10.109,10.109l0,0c0,5.56-4.549,10.109-10.109,10.109
						h-36.92c-5.56,0-10.109-4.55-10.109-10.109l0,0C293.274,563.115,297.824,558.565,303.384,558.565z"/>
					<g>
						<path fill="#E2A379" d="M281.678,534.047h36.921c5.56,0,10.109,4.549,10.109,10.109l0,0c0,5.56-4.549,10.109-10.109,10.109
							h-36.921c-5.56,0-10.109-4.55-10.109-10.109l0,0C271.569,538.596,276.118,534.047,281.678,534.047z"/>
					</g>
					<path fill="#F9CBAC" d="M239.522,558.565h36.92c5.561,0,10.109,4.55,10.109,10.109l0,0c0,5.56-4.549,10.109-10.109,10.109
						h-36.92c-5.56,0-10.109-4.55-10.109-10.109l0,0C229.414,563.115,233.962,558.565,239.522,558.565z"/>
				</g>
			</g>
			<path clip-path="url(#SVGID_2_)" fill="#F4D5C1" d="M1050.794,793.181H397.04c-36.545,0-66.171-29.626-66.171-66.171V242.09
				c0-36.545,29.626-66.171,66.171-66.171h653.754c36.546,0,66.171,29.626,66.171,66.171V727.01
				C1116.965,763.555,1087.34,793.181,1050.794,793.181z"/>
			<path clip-path="url(#SVGID_2_)" fill="#F9BC90" d="M1039.674,764.427H408.159c-22.462,0-40.672-18.21-40.672-40.672V245.346
				c0-22.463,18.209-40.672,40.672-40.672h631.515c22.463,0,40.672,18.209,40.672,40.672v478.409
				C1080.346,746.217,1062.137,764.427,1039.674,764.427z"/>
			<path clip-path="url(#SVGID_2_)" fill="#84563D" d="M1035.705,475.905H405.554V228.09c0-12.932,10.484-23.416,23.417-23.416
				h583.318c12.933,0,23.416,10.484,23.416,23.416V475.905z"/>
			<path clip-path="url(#SVGID_2_)" fill="#A57868" d="M951.844,466.964H485.342c-9.769,0-17.688-7.919-17.688-17.688V241.303
				c0-9.769,7.919-17.688,17.688-17.688h466.501c9.769,0,17.688,7.919,17.688,17.688v207.974
				C969.531,459.045,961.612,466.964,951.844,466.964z"/>
			<path clip-path="url(#SVGID_2_)" fill="#2E3C6B" d="M957.844,461.964H491.342c-9.769,0-17.688-7.919-17.688-17.688V236.303
				c0-9.769,7.919-17.688,17.688-17.688h466.501c9.769,0,17.688,7.919,17.688,17.688v207.974
				C975.531,454.045,967.612,461.964,957.844,461.964z"/>
			<rect x="397.382" y="476.084" clip-path="url(#SVGID_2_)" fill="#84563D" width="639.031" height="245.117"/>
			<path clip-path="url(#SVGID_2_)" fill="#93624D" d="M954.703,713.603h-470.22c-8.742,0-15.829-7.087-15.829-15.828V509.512
				c0-8.742,7.087-15.829,15.829-15.829h470.22c8.741,0,15.828,7.087,15.828,15.829v188.263
				C970.531,706.516,963.444,713.603,954.703,713.603z"/>
			<path clip-path="url(#SVGID_2_)" fill="#2E3C6B" d="M959.703,708.603h-470.22c-8.742,0-15.829-7.087-15.829-15.828V504.512
				c0-8.742,7.087-15.829,15.829-15.829h470.22c8.741,0,15.828,7.087,15.828,15.829v188.263
				C975.531,701.516,968.444,708.603,959.703,708.603z"/>
			<rect x="706.695" y="218" clip-path="url(#SVGID_2_)" fill="#84563D" width="28.224" height="479"/>
			<rect x="728.717" y="218" clip-path="url(#SVGID_2_)" fill="#A57868" width="5.527" height="479"/>
			<path clip-path="url(#SVGID_2_)" fill="#C13B54" d="M989.396,719.255H454.162l-72.142,37.598
				c6.213,4.748,13.974,7.574,22.397,7.574h638.999c8.297,0,15.954-2.737,22.12-7.355L989.396,719.255z"/>
			<polygon clip-path="url(#SVGID_2_)" fill="#ED8D43" points="435.187,442.881 414.269,469.42 397.192,456.218 405.812,437.587 			
				"/>
			<path clip-path="url(#SVGID_2_)" fill="#ED8D43" d="M440.604,453.562l-34.885-5.359l14.088-61.13l28.634,7.537
				c6.925,1.823,11.062,8.915,9.239,15.839l-3.458,34.132C453.55,451.211,446.963,455.556,440.604,453.562z"/>
			<path clip-path="url(#SVGID_2_)" fill="#ED8D43" d="M456.883,418.321c0,0,0.014,11.833,3.988,14.979c0,0-2.586,4.122-7.432,3.147
				"/>
			<path clip-path="url(#SVGID_2_)" fill="#ED8D43" d="M883.994,716.041c0,0,48.935-57.561,56.228-82.904
				c7.292-25.344,14.309,7.805,14.309,7.805l-11.12,93.165c0,0-7.254,9.697-30.867,0.683
				C888.929,725.774,885.295,720.464,883.994,716.041z"/>
			<path clip-path="url(#SVGID_2_)" fill="#F79857" d="M943.33,625.566c-1.018,1.497-2.061,3.927-3.108,7.57
				c-4.561,15.847-25.399,44.289-40.379,63.38l0,0c0,0,21.824-25.85,31.944-37.184C941.907,648,943.33,625.566,943.33,625.566z"/>
			<path clip-path="url(#SVGID_2_)" fill="#36458E" d="M578.712,658.129c0,0,139.619-4.584,161.877,16.946
				c22.257,21.53-16.2,52.473-68.086,60.547c-231.318,35.994-200.405-26.4-200.405-26.4s-23.718-18.812,8.932-50.727
				C513.681,626.581,578.712,658.129,578.712,658.129z"/>
			<path clip-path="url(#SVGID_2_)" fill="#445596" d="M583.029,658.014c-0.462,0.213-0.923,0.428-1.363,0.653
				c0,0,103.115,7.376,128.891,6.021c0.776-0.041,1.417-0.104,1.939-0.183C671.106,656.534,601.007,657.589,583.029,658.014z"/>
			<path clip-path="url(#SVGID_2_)" fill="#36458E" d="M725.424,664.688l172.824,31.827c0,0,18.354,18.811,4.033,36.115
				c0,0-67.072-0.242-75.461,3.678c-8.39,3.919-74.946,0.291-90.788-15.107C720.189,705.804,698.824,676.314,725.424,664.688z"/>
			<path clip-path="url(#SVGID_2_)" fill="#212D5B" d="M826.82,736.309c8.389-3.92,75.461-3.678,75.461-3.678
				c1.089-1.315,1.968-2.641,2.702-3.965c-0.648-0.009-1.3-0.016-1.983,0.001C846.333,730,729,700,729,700
				c-2.484,1.211-5.149,2.329-7.971,3.361c4.424,6.683,9.989,12.967,15.003,17.84C751.874,736.6,818.431,740.228,826.82,736.309z"/>
			<path clip-path="url(#SVGID_2_)" fill="#212D5B" d="M741.416,703.052C733.607,701.178,729,700,729,700
				c-53.333,26-189.333,9.333-189.333,9.333s-28.492,12.214-47.461,29.534c24.365,9.162,75.333,13.088,180.298-3.245
				C703.859,730.742,730.305,717.51,741.416,703.052z"/>
			<path clip-path="url(#SVGID_2_)" fill="#445596" d="M760.619,671.17L760.619,671.17c0,0,94.211,25.528,137.629,25.346
				L760.619,671.17z"/>
			<path clip-path="url(#SVGID_2_)" fill="#414DA3" d="M502.029,638.141c0,0,104.713-92.465,135.585-90.043
				c30.872,2.421,19.976,49.939-13.923,90.043c-33.898,40.104-88.353,125.942-168.887,108.506
				c-4.514-0.978-33.142-4.994-27.846-46.005C432.807,655.359,502.029,638.141,502.029,638.141z"/>
			<path clip-path="url(#SVGID_2_)" fill="#324177" d="M623.692,638.141c1.7-2.011,3.338-4.04,4.919-6.081l0,0
				c0,0-135.926,125.844-186.102,57.226c-2.564-3.508-5.13-6.625-7.684-9.414c-4.026,6.144-6.869,13.048-7.866,20.771
				c-5.296,41.011,23.332,45.027,27.845,46.005C535.339,764.083,589.793,678.244,623.692,638.141z"/>
			<path clip-path="url(#SVGID_2_)" fill="#ED8D43" d="M768.972,680.06c0,0,62.955,41.769,88.983,46.006
				c26.029,4.237-6.053,15.133-6.053,15.133h-93.826c0,0-10.489-6.053-4.337-30.569C759.892,686.113,764.734,681.876,768.972,680.06
				z"/>
			<path clip-path="url(#SVGID_2_)" fill="#414DA3" d="M648.646,551.984L768.972,680.06c0,0,3.632,26.029-18.16,31.478
				c0,0-53.874-39.952-62.954-41.768c-9.08-1.816-60.533-44.189-64.166-65.981C620.06,581.996,620.332,545.581,648.646,551.984z"/>
			<path clip-path="url(#SVGID_2_)" fill="#4F5EAA" d="M768.972,680.06L652.143,555.706
				C652.158,555.726,738.613,669.121,768.972,680.06z"/>
			<path clip-path="url(#SVGID_2_)" fill="none" stroke="#231F20" stroke-miterlimit="10" d="M449.833,445.104
				c0,0-7.831-0.561-10.032-4.742"/>
			<path clip-path="url(#SVGID_2_)" fill="#E57C35" d="M603.414,534.843c0,0,5.145-3.997,7.869-7.629s12.107-19.068,20.582-18.16
				s17.641,5.146,23.954,2.118c0,0,0.472,11.829-12.649,10.758c0,0-2.527,8.008-16.45,14.364
				c-13.922,6.355-25.424,14.946-25.424,14.946L603.414,534.843z"/>
			<path clip-path="url(#SVGID_2_)" fill="#EF8C48" d="M644.349,511.528c0.001,0,0.002,0,0.004-0.001
				c-4.053-0.798-8.353-2.03-12.488-2.474c-0.538-0.058-1.079-0.048-1.622,0.019C630.879,509.546,635.823,512.952,644.349,511.528z"
				/>
			<path clip-path="url(#SVGID_2_)" fill="#7F93CE" d="M379.895,455.633c0,0,62.198,12.258,74.91,34.958
				c12.712,22.7,19.757,22.997,40.406,41.769c14.429,13.117-4.086,55.842-9.08,56.749c-4.994,0.908-9.516,37.683,15.899,49.032
				c0,0-79.913,36.472-68.412,98.215C433.618,736.355,333.133,661.295,379.895,455.633z"/>
			<path clip-path="url(#SVGID_2_)" fill="#5C729E" d="M372.884,492.116c-27.762,178.125,60.734,244.239,60.734,244.239
				c-3.336-17.909,1.027-33.688,8.892-47.07C366.525,633.797,372.83,493.288,372.884,492.116z"/>
			<path clip-path="url(#SVGID_2_)" fill="#8EA5DD" d="M485,530.128c15.293,13.396,15.564,16.195,15.566,16.21
				c-0.256-5.74-1.809-10.755-5.355-13.979c-19.341-17.584-26.748-18.958-38.055-37.718l0,0
				C457.155,494.642,469.667,516.695,485,530.128z"/>
			<path clip-path="url(#SVGID_2_)" fill="#8EA5DD" d="M482.558,598.026l-1.892-2.032c0,0-5.567,24.964,4.333,35.395
				c4.996,5.263,8.85,8.082,11.446,9.588c3.473-1.871,5.583-2.836,5.583-2.836C484.268,630.209,481.134,609.873,482.558,598.026z"/>
			<path clip-path="url(#SVGID_2_)" fill="#7F93CE" d="M533.195,569.89c0,0,60.836-31.78,70.521-40.558
				c0,0,5.145,4.168,4.842,21.908C608.559,551.24,553.474,568.981,533.195,569.89z"/>
			<path clip-path="url(#SVGID_2_)" fill="#41383B" d="M724.343,443.034c0,0-13.482-12.437-12.575-22.997l-65.375,88.979
				c0,0-6.374,4.261,2.119,9.118L724.343,443.034z"/>
			<path clip-path="url(#SVGID_2_)" fill="#D1D1D3" d="M721.807,445.545c0,0-20.935-4.052-20.632-25.508l-56.827,91.491
				c0,0-0.983,6.594,4.163,6.605L721.807,445.545z"/>
			<path clip-path="url(#SVGID_2_)" fill="#E1DFE2" d="M720.848,455.633c0,0,1.514-11.956,7.869-9.837c0,0-6.355-5.146-13.015-5.146
				c-6.658,0-67.191,77.483-67.191,77.483l3.632,23.91L720.848,455.633z"/>
			<path clip-path="url(#SVGID_2_)" fill="#D1D1D3" d="M653.312,528.597l59.322-73.547c0,0,5.751-6.053,8.172,1.665l-68.705,86.411
				L653.312,528.597z"/>
			<g clip-path="url(#SVGID_2_)">
				<path fill="#B28568" d="M1020.673,758.492h-6.142c-21.539,0-39-17.461-39-39v-36.364h84.142v36.364
					C1059.673,741.031,1042.212,758.492,1020.673,758.492z"/>
				<ellipse fill="#473425" cx="1017.602" cy="683.128" rx="42.071" ry="9.383"/>
				<path fill="#55A081" d="M1026.654,642.556c4.053-13.747,10.314-27.066,19.959-37.668c5.822-6.401,12.748-11.683,19.633-16.927
					c-0.229,7.916-2.185,15.676-4.398,23.278c-4.046,13.895-8.99,27.527-14.793,40.784c-1.167,2.664-2.374,5.325-3.951,7.769
					c-1.617,2.505-3.602,4.748-5.578,6.98c-2.15,2.43-4.301,4.859-6.451,7.289c-2.202,2.487-6.62,8.605-10.216,9.052
					c-3.5,0.435-0.737-8.593-0.308-11.421C1022.042,661.878,1023.844,652.087,1026.654,642.556z"/>
				<path fill="#39775E" d="M1004.788,672.932c-5.754-11.12-12.589-21.639-19.411-32.137c-8.069-12.417-17.025-25.573-30.847-30.891
					c0.332,1.743,0.663,3.486,1.042,5.22c5.267,24.091,20.146,45.851,40.423,59.824c2.363,1.629,5.941,4.82,8.774,5.371
					C1009.341,681.209,1006.038,675.346,1004.788,672.932z"/>
				<path fill="#4C9278" d="M984.102,648.721c-1.655-3.74-3.171-7.737-4.073-12.182c-0.74-3.646-1.05-7.506-1.356-11.335
					c-0.289-3.62-0.216-8.363,1.769-9.617c1.405-0.888,2.889,0.66,4.173,1.986c4.809,4.969,10.404,7.633,16.007,7.619
					c0.876-0.002,1.794-0.088,2.55-0.856c1.593-1.619,1.781-5.715,0.898-8.52c-0.884-2.806-2.511-4.628-4.064-6.355
					c-2.607-2.9-5.223-5.918-7.271-9.942c-2.049-4.023-3.499-9.225-3.346-14.579c0.027-0.98,0.134-2.043,0.555-2.701
					c0.329-0.514,0.789-0.681,1.227-0.8c2.264-0.616,4.595-0.475,6.828,0.413c2.638,1.049,5.23,3.143,7.922,2.644
					c4.324-0.801,7.515-9.467,6.104-16.582c-0.765-3.858-2.551-6.826-3.688-10.401c-2.178-6.85-1.652-15.979,1.264-21.952
					c2.916-5.973,8.032-8.397,12.303-5.832c0.906,0.545,1.781,1.302,2.506,2.393c3.112,4.688,2.405,13.22,1.39,20.138
					c-1.016,6.919-1.846,15.351,1.148,20.264c2.101,3.445,5.296,3.685,8.19,3.725c3.361,0.046,6.723,0.092,10.085,0.138
					c1.595,0.022,3.313,0.113,4.584,1.783c1.454,1.911,1.902,5.524,1.443,8.581c-0.458,3.058-1.671,5.619-3.03,7.729
					c-5.85,9.093-14.907,11.874-19.011,23.48c-0.558,1.577-1.009,3.521-0.608,5.236c0.281,1.205,0.927,2.03,1.576,2.683
					c3.961,3.979,8.876,3.748,13.385,2.348c4.509-1.401,8.948-3.856,13.528-3.941c0.41-0.008,0.844,0.015,1.192,0.39
					c0.363,0.392,0.567,1.098,0.726,1.786c2.091,9.105-1.065,19.261-4.802,26.624c-7.052,13.899-16.684,23.705-27.056,28.063
					c-11.152,4.686-19.475,0.934-29-9.885C992.784,665.171,988.002,657.535,984.102,648.721z"/>
				<path fill="none" stroke="#79CCAA" stroke-linecap="round" stroke-linejoin="round" stroke-miterlimit="10" d="M1016.63,544.148
					c-1.032,11.902-2.042,24.09,1.034,35.633c0.678,2.545,1.553,5.044,1.979,7.643c1.667,10.169-3.638,20.061-5.248,30.238
					c-3.151,19.916,7.898,40.823,1.632,59.988"/>
				<path fill="none" stroke="#79CCAA" stroke-linecap="round" stroke-linejoin="round" stroke-miterlimit="10" d="
					M1022.368,545.693c-2.69,3.541-5.091,7.303-7.17,11.235"/>
				<path fill="none" stroke="#79CCAA" stroke-linecap="round" stroke-linejoin="round" stroke-miterlimit="10" d="M1003.229,588.42
					c6.979,3.652,8.181,13.665,14.647,18.163"/>
				<path fill="none" stroke="#79CCAA" stroke-linecap="round" stroke-linejoin="round" stroke-miterlimit="10" d="
					M1043.663,591.181c-2.452,0.126-4.791,1.169-6.784,2.603c-5.877,4.224-8.721,11.39-11.369,18.125
					c-2.648,6.736-5.743,13.861-11.856,17.734"/>
				<path fill="none" stroke="#79CCAA" stroke-linecap="round" stroke-linejoin="round" stroke-miterlimit="10" d="M988.396,628.891
					c8.135,4.302,12.094,13.572,18.279,20.387c3.053,3.363,6.717,6.171,10.759,8.245"/>
				<path fill="none" stroke="#79CCAA" stroke-linecap="round" stroke-linejoin="round" stroke-miterlimit="10" d="
					M1047.938,642.261c-1.845,1.466-3.689,2.932-5.534,4.397c-2.818,2.239-5.653,4.495-8.021,7.205
					c-3.159,3.615-5.473,8.019-9.228,11.009c-2.264,1.803-4.939,2.997-7.583,4.172"/>
				<g>
					<path fill="#65AA8E" d="M1009.598,535.56c-2.916,5.974-3.441,15.103-1.264,21.952c1.137,3.575,2.923,6.543,3.688,10.401
						c0.434,2.191,0.429,4.528,0.092,6.738c3.25-4.95-0.497-17.094-2.614-24.149c-2.25-7.499,4.316-20.204,4.316-20.204l0,0
						C1012.198,531.463,1010.731,533.239,1009.598,535.56z"/>
					<path fill="#65AA8E" d="M1005,612c-0.75-3.75-10-18-13-23.58c-1.456-2.707-1.729-4.883-1.517-6.707
						c-0.198,0.119-0.386,0.281-0.542,0.525c-0.421,0.658-0.527,1.721-0.555,2.701c-0.153,5.354,1.297,10.556,3.346,14.579
						c2.049,4.024,4.664,7.042,7.271,9.942c1.553,1.728,3.181,3.55,4.064,6.355c0.883,2.805,0.693,6.899-0.898,8.52
						C1005.721,623.479,1005.75,615.75,1005,612z"/>
					<path fill="#65AA8E" d="M983.373,616.357c-0.954-0.835-1.962-1.384-2.933-0.771c-1.984,1.254-2.058,5.997-1.769,9.617
						c0.307,3.829,0.616,7.688,1.356,11.335c0.827,4.07,2.169,7.763,3.661,11.229C980.104,638.029,982.144,622.989,983.373,616.357z
						"/>
				</g>
				<path fill="#438267" d="M955.572,615.124c4.949,22.64,18.391,43.218,36.821,57.213c-15.017-11.828-34.747-54.562-37.528-60.694
					C955.09,612.805,955.319,613.967,955.572,615.124z"/>
			</g>
			<path clip-path="url(#SVGID_2_)" fill="#3D383C" d="M463.156,399.192c0,0-7.577,28.037-25.937,30.372
				c-18.36,2.334-28.743,32.705-28.743,32.705s-15.943,39.827-58.609,13.923c-42.666-25.904-24.875-70.161-14.653-79.175
				s58.684,1.352,69.351-13.245C415.233,369.174,469.296,369.492,463.156,399.192z"/>
			<path clip-path="url(#SVGID_2_)" fill="#4F4B4E" d="M463.156,399.192c4.035-19.52-17.933-26.347-36.497-24.591
				c0.029,0.001,27.091,1.3,29.34,12.471c2.25,11.176,2.979,22.778-7.379,37.097C458.775,415.37,463.156,399.192,463.156,399.192z"
				/>
			<path clip-path="url(#SVGID_2_)" fill="#ED8D43" d="M608.256,544.163c0,0,15.436-14.528,25.424-14.528
				c9.988,0,17.857-4.237,17.857-4.237s9.08-7.566,14.226-3.632c0,0,5.292,3.154-11.096,12.234c0,0-1.508,5.637,1.151,3.504
				c4.829-3.872,24.473-29.964,24.473-29.964s-2.724,18.766-9.382,31.175s-12.107,24.818-59.625,23.306
				C611.283,562.021,601.9,553.243,608.256,544.163z"/>
			<path clip-path="url(#SVGID_2_)" fill="#F79857" d="M660.667,549.611c-2.511,2.004-4.251,4.479-5.409,6.581
				c9.013-4.498,12.167-10.987,15.65-17.478c6.659-12.409,9.383-31.175,9.383-31.175S666.167,545.222,660.667,549.611z"/>
			<path clip-path="url(#SVGID_2_)" fill="none" d="M348.062,92.864c26.457-17.097,60.362-22.475,92.089-18.995
				c38.89,4.265,75.431,20.219,110.885,36.759c15.52,7.24,31.13,14.688,47.839,18.441c39.043,8.771,78.298-3.764,113.382-20.475
				c29.978-14.279,56.146-24.095,87.925-33.557c60.022-17.872,134.848-31.143,189.125,9.133
				c17.034,12.641,27.146,32.96,44.274,45.474c41.646,30.424,102.483,2.739,150.901,20.507
				c27.578,10.121,48.526,35.101,56.438,63.392c14.457,51.699-20.018,99.09-34.042,146.698
				c-14.989,50.88-31.362,110.783-1.495,159.699c21.661,35.478,64.16,56.353,79.536,94.973
				c11.919,29.938,3.286,66.879-20.668,88.435c-24.435,21.988-61.232,27.869-82.511,52.926
				c-18.233,21.472-20.892,52.233-35.846,76.105c-19.295,30.803-51.284,35.141-83.439,45.469
				c-40.088,12.876-82.375,22.559-124.647,16.561c-68.943-9.783-130.311-59.958-199.814-55.691
				c-30.493,1.872-59.182,14.233-88.188,23.824c-42.005,13.89-83.496,17.146-126.599,24.383
				c-15.193,2.551-26.591,9.705-42.136,5.838c-16.77-4.172-29.853-18.064-46.722-22.588c-10.556-2.831-21.707-1.918-32.596-0.985
				c-18.805,1.612-37.61,3.225-56.415,4.836c-36.736,3.149-75.695,5.896-108.565-10.809c-28.625-14.546-48.983-42.886-57.365-73.881
				s-5.527-64.329,4.264-94.909c13.241-41.354,39.002-79.54,41.256-122.904c2.197-42.269-18.418-82.167-40.764-118.112
				c-22.346-35.946-47.53-71.61-56.263-113.024c-8.733-41.414,4.212-91.099,41.875-110.411c13.107-6.721,27.902-9.205,41.97-13.57
				c31.362-9.731,59.582-29.331,79.654-55.319c13.847-17.928,23.95-38.822,39.993-54.816
				C336.497,101.181,342.09,96.724,348.062,92.864z"/>
			<path clip-path="url(#SVGID_2_)" fill="#BCD3FF" d="M608.256,544.163c-21.338,10.896-90.497,21.489-90.497,21.489
				s-17.564-5.91-50.848-43.584s-63.56-16.598-63.56-16.598c-15.739,10.038-5.448,42.021,0,51.707
				c5.448,9.686,60.533,56.901,92.011,52.059c43.281,7.415,117.434-36.926,117.434-36.926
				C616.428,555.513,608.256,544.163,608.256,544.163z"/>
			<path clip-path="url(#SVGID_2_)" fill="#D2E3FF" d="M487.5,554.833c3.5,3.667,21,14.946,35,15.057s48.383-14.284,48.383-14.284
				h-0.001c-25.656,5.839-53.124,10.047-53.124,10.047s-17.564-5.91-50.848-43.584c-7.633-8.64-15.106-14.183-22.094-17.605
				C444.821,504.466,484,551.166,487.5,554.833z"/>
			<path clip-path="url(#SVGID_2_)" fill="none" stroke="#FFFFFF" stroke-miterlimit="10" d="M976,369.302L976,369.302
				c-4.4,0-8-3.6-8-8v-36.8c0-4.4,3.6-8,8-8l0,0c4.4,0,8,3.6,8,8v36.8C984,365.702,980.4,369.302,976,369.302z"/>
			<path clip-path="url(#SVGID_2_)" fill="none" stroke="#FFFFFF" stroke-miterlimit="10" d="M976,603.302L976,603.302
				c-4.4,0-8-3.601-8-8v-36.8c0-4.4,3.6-8,8-8l0,0c4.4,0,8,3.6,8,8v36.8C984,599.701,980.4,603.302,976,603.302z"/>
			<g clip-path="url(#SVGID_2_)">
				<g>
					<path fill="#F9CBAC" d="M197.03,362.829h-36.921c-5.56,0-10.109-4.549-10.109-10.109l0,0c0-5.56,4.549-10.109,10.109-10.109
						h36.921c5.56,0,10.109,4.549,10.109,10.109l0,0C207.139,358.28,202.59,362.829,197.03,362.829z"/>
					<g>
						<path fill="#E2A379" d="M218.735,387.348h-36.92c-5.56,0-10.109-4.549-10.109-10.109l0,0c0-5.56,4.549-10.109,10.109-10.109
							h36.92c5.56,0,10.109,4.549,10.109,10.109l0,0C228.845,382.799,224.295,387.348,218.735,387.348z"/>
					</g>
					<path fill="#F9CBAC" d="M260.891,362.829H223.97c-5.56,0-10.109-4.549-10.109-10.109l0,0c0-5.56,4.549-10.109,10.109-10.109
						h36.921c5.56,0,10.109,4.549,10.109,10.109l0,0C271,358.28,266.451,362.829,260.891,362.829z"/>
				</g>
			</g>
			<g clip-path="url(#SVGID_2_)">
				<g>
					<path fill="#F9CBAC" d="M1196.971,458.234h36.92c5.561,0,10.109,4.549,10.109,10.109l0,0c0,5.56-4.549,10.109-10.109,10.109
						h-36.92c-5.561,0-10.109-4.549-10.109-10.109l0,0C1186.861,462.783,1191.41,458.234,1196.971,458.234z"/>
					<g>
						<path fill="#E2A379" d="M1175.265,433.715h36.921c5.56,0,10.108,4.549,10.108,10.109l0,0c0,5.56-4.549,10.109-10.108,10.109
							h-36.921c-5.561,0-10.109-4.549-10.109-10.109l0,0C1165.155,438.264,1169.704,433.715,1175.265,433.715z"/>
					</g>
					<path fill="#F9CBAC" d="M1133.109,458.234h36.92c5.561,0,10.109,4.549,10.109,10.109l0,0c0,5.56-4.549,10.109-10.109,10.109
						h-36.92c-5.561,0-10.109-4.549-10.109-10.109l0,0C1123,462.783,1127.549,458.234,1133.109,458.234z"/>
				</g>
			</g>
			<g clip-path="url(#SVGID_2_)">
				<g>
					<path fill="#FFF6D9" d="M266.914,646.037c0,0,12,10,26,0v133c0,0-14-10-26,0V646.037z"/>
					<path fill="#47619A" d="M293.414,782.037L293.414,782.037c-1.933,0-3.5-1.567-3.5-3.5v-134c0-1.934,1.567-3.5,3.5-3.5l0,0
						c1.933,0,3.5,1.566,3.5,3.5v134C296.914,780.47,295.346,782.037,293.414,782.037z"/>
					<path fill="#47619A" d="M266.414,782.037L266.414,782.037c-1.933,0-3.5-1.567-3.5-3.5v-134c0-1.934,1.567-3.5,3.5-3.5l0,0
						c1.933,0,3.5,1.566,3.5,3.5v134C269.914,780.47,268.346,782.037,266.414,782.037z"/>
				</g>
				<g>
					<path fill="#FFF6D9" d="M300.781,645.547c0,0,12,10,26,0v133c0,0-14-10-26,0V645.547z"/>
					<path fill="#BCD3FF" d="M327.281,781.547L327.281,781.547c-1.933,0-3.5-1.567-3.5-3.5v-134c0-1.934,1.567-3.5,3.5-3.5l0,0
						c1.933,0,3.5,1.566,3.5,3.5v134C330.781,779.979,329.214,781.547,327.281,781.547z"/>
					<path fill="#BCD3FF" d="M300.281,781.547L300.281,781.547c-1.933,0-3.5-1.567-3.5-3.5v-134c0-1.934,1.567-3.5,3.5-3.5l0,0
						c1.933,0,3.5,1.566,3.5,3.5v134C303.781,779.979,302.214,781.547,300.281,781.547z"/>
				</g>
				<g>
					<path fill="#FFF6D9" d="M244.931,675.973c0,0,5.994,8.74,15.5,2.348l-15.422,101.841c0,0-7.187-8.921-15.5-2.347
						L244.931,675.973z"/>
					<path fill="#C33A56" d="M244.958,782.504L244.958,782.504c-1.152-0.175-1.945-1.25-1.771-2.402l15.718-103.795
						c0.174-1.152,1.25-1.944,2.402-1.771l0,0c1.152,0.175,1.945,1.25,1.771,2.402l-15.718,103.795
						C247.187,781.886,246.111,782.679,244.958,782.504z"/>
					<path fill="#C13B54" d="M228.863,780.066L228.863,780.066c-1.152-0.175-1.945-1.25-1.771-2.402l15.718-103.795
						c0.175-1.152,1.25-1.944,2.403-1.771l0,0c1.152,0.175,1.945,1.25,1.771,2.403l-15.718,103.794
						C231.091,779.448,230.015,780.241,228.863,780.066z"/>
				</g>
			</g>
			<g clip-path="url(#SVGID_2_)">
				<circle fill="#FFFFFF" cx="868.14" cy="300.393" r="59.078"/>
				
					<ellipse transform="matrix(0.803 0.596 -0.596 0.803 341.5012 -479.6953)" fill="#EDEDED" cx="896.261" cy="276.653" rx="21.096" ry="19.227"/>
				
					<ellipse transform="matrix(0.8029 0.596 -0.596 0.8029 348.2452 -443.3214)" fill="#EDEDED" cx="844.609" cy="305.031" rx="15.829" ry="14.425"/>
				
					<ellipse transform="matrix(0.596 -0.803 0.803 0.596 78.0801 795.1361)" fill="#EDEDED" cx="829.262" cy="319.97" rx="2.467" ry="3.5"/>
				
					<ellipse transform="matrix(0.596 -0.803 0.803 0.596 75.3986 823.4236)" fill="#EDEDED" cx="856.043" cy="336.778" rx="3.82" ry="5.42"/>
				
					<ellipse transform="matrix(0.3491 -0.9371 0.9371 0.3491 229.7152 1031.7642)" fill="#EDEDED" cx="857.543" cy="350.528" rx="2.775" ry="3.938"/>
				
					<ellipse transform="matrix(0.596 -0.803 0.803 0.596 66.2939 812.3512)" fill="#EDEDED" cx="840.5" cy="340.29" rx="7.166" ry="12.167"/>
			</g>
			<g clip-path="url(#SVGID_2_)">
				<circle fill="#FFFFFF" cx="500.046" cy="243.861" r="2.546"/>
				<circle fill="#FFFFFF" cx="767" cy="243.861" r="2.546"/>
				<circle fill="#FFFFFF" cx="645.964" cy="228" r="2.546"/>
				<circle fill="#FFFFFF" cx="578.454" cy="243.861" r="2.546"/>
				<circle fill="#FFFFFF" cx="683.949" cy="257.333" r="2.546"/>
				<circle fill="#FFFFFF" cx="633.787" cy="274.417" r="2.546"/>
				<circle fill="#FFFFFF" cx="818.454" cy="228" r="2.546"/>
				<circle fill="#FFFFFF" cx="755.787" cy="274.417" r="2.546"/>
				<circle fill="#FFFFFF" cx="958.114" cy="288.12" r="2.546"/>
				<circle fill="#FFFFFF" cx="680.667" cy="317.667" r="2.546"/>
				<circle fill="#FFFFFF" cx="792" cy="401.667" r="2.546"/>
				<circle fill="#FFFFFF" cx="538.333" cy="437.587" r="2.546"/>
				<circle fill="#FFFFFF" cx="802.5" cy="509.016" r="2.546"/>
				<circle fill="#FFFFFF" cx="931.787" cy="613.333" r="2.546"/>
				<circle fill="#FFFFFF" cx="805.697" cy="645.157" r="2.546"/>
				<circle fill="#FFFFFF" cx="574" cy="278" r="3.583"/>
				<circle fill="#FFFFFF" cx="500.046" cy="392" r="3.583"/>
				<circle fill="#FFFFFF" cx="644.273" cy="377.333" r="3.583"/>
				<circle fill="#FFFFFF" cx="927.218" cy="442.733" r="3.583"/>
				<circle fill="#FFFFFF" cx="954.531" cy="241.314" r="3.583"/>
				<circle fill="#FFFFFF" cx="532.583" cy="506.469" r="3.583"/>
				<circle fill="#FFFFFF" cx="692.198" cy="569.89" r="3.583"/>
				<circle fill="#FFFFFF" cx="954.531" cy="511.562" r="3.583"/>
				<circle fill="#FFFFFF" cx="837.667" cy="554.589" r="3.583"/>
				<circle fill="#FFFFFF" cx="769.546" cy="576.901" r="3.583"/>
			</g>
			<path clip-path="url(#SVGID_2_)" fill="#8EA5DD" d="M603.716,529.332c-5.279,4.784-25.753,16.401-43.29,25.982l45.621-22.189l0,0
				C604.866,530.267,603.716,529.332,603.716,529.332z"/>
			<path clip-path="url(#SVGID_2_)" fill="#F79857" d="M770.57,681.109L770.57,681.109c0,0,33.43,30.558,56.43,38.224
				c23,7.667,32.847,7.074,32.847,7.074l0,0c-0.596-0.118-1.22-0.232-1.892-0.342C834.382,722.228,780.522,687.607,770.57,681.109z"
				/>
		</g>
		<g>
			<path fill="#C13B54" d="M288.372,172.808c-22.794-20.518-93.107-31.856-66.47-7.567c-7.294,2.054-52.476,3.98-26.707,16.389
				c-6.066,1.701-69.74,22.246-36.842,27.408c-6.934,3.261-49.822,23.182-23.145,24.851c-5.731,2.927-33.516,15.982-29.912,24.139
				c3.957,9.373,28.428-1.452,35.719-3.495l0,0c-14.302,23.683,45.573-1.022,54.949-4.972l0,0
				c-0.528,2.766,0.499,6.413,0.307,10.405c17.147,0.408,32.976-13.215,45.5-24.604c2.128,30.854,32.785-9.228,38.016-18.563
				C286.089,201.921,288.884,191.578,288.372,172.808"/>
			<path fill="#30602C" d="M358.982,101.692c-10.516,18.987-24.288,36.198-39.919,51.437c-15.765,15.208-33.871,27.576-52.87,38.376
				c-38.207,20.805-79.095,35.432-119.31,51.184c-0.14,0.053-0.3-0.018-0.354-0.158c-0.057-0.135,0.01-0.294,0.146-0.353
				c39.638-17.228,80.023-33.056,117.396-54.531c18.278-11.076,35.392-24.229,51.237-38.544
				c16.012-14.236,30.092-30.51,43.22-47.716c0.092-0.12,0.264-0.144,0.386-0.054C359.021,101.42,359.046,101.578,358.982,101.692z"
				/>
			<path fill="#30602C" d="M159.598,220.763c3.482-0.904,6.952-1.538,10.442-2.348c3.495-0.665,7.015-1.28,10.586-1.683
				c7.123-0.846,14.481-1.006,21.815,0.364c1.479,0.266,2.466,1.678,2.202,3.155c-0.08,0.446-0.285,0.875-0.54,1.205
				c-4.433,5.644-9.678,10.282-15.177,14.433c-2.739,2.096-5.578,4.03-8.435,5.917c-2.938,1.795-5.759,3.701-8.772,5.406
				c9.121-10.348,20.067-18.782,28.022-29.086l1.665,4.36c-6.606-1.282-13.532-1.417-20.523-1.433l-10.579,0.078
				C166.747,221.013,163.175,221.118,159.598,220.763z"/>
			<path fill="#30602C" d="M195.995,198.714c7.672-0.508,15.238-1.508,22.939-1.697c3.847-0.187,7.709-0.117,11.629,0.054
				c3.93,0.347,7.843,0.606,12.089,2.338c1.325,0.54,1.979,2.032,1.488,3.363l-0.031,0.086c-2.625,7.104-6.567,13.974-11.936,19.414
				c-2.627,2.755-5.532,5.128-8.418,7.417c-2.973,2.206-5.771,4.515-8.625,6.901c1.928-3.193,4.446-5.977,6.799-8.82
				c2.45-2.763,4.854-5.473,7.035-8.276c4.341-5.62,7.616-11.835,9.994-18.526l1.457,3.449c-2.842-1.213-6.654-1.741-10.293-2.124
				c-3.691-0.471-7.471-0.625-11.255-0.947c-3.793-0.25-7.607-0.538-11.432-0.885C203.617,199.961,199.758,199.669,195.995,198.714z
				"/>
			<path fill="#30602C" d="M234.547,177.114c6.817-0.666,13.666-0.245,20.401,0.546c6.746,0.774,13.4,2.022,19.969,3.313
				c1.479,0.282,2.451,1.712,2.168,3.194l-0.048,0.211c-1.685,6.148-4.36,12.164-7.697,17.47c-3.29,5.333-6.64,10.422-10.051,15.729
				c1.368-6.144,3.82-12.035,6.336-17.663c2.504-5.632,4.637-11.13,6.141-16.978l2.12,3.405
				C260.565,183.766,247.766,180.402,234.547,177.114z"/>
		</g>
		<g>
			<path fill="#C13B54" d="M188.362,396.123c8.954-8.06,36.572-12.513,26.109-2.972c2.865,0.807,20.612,1.563,10.49,6.438
				c2.383,0.668,27.394,8.738,14.471,10.766c2.724,1.281,19.57,9.106,9.091,9.761c2.251,1.15,13.165,6.278,11.75,9.482
				c-1.554,3.682-11.167-0.57-14.03-1.373l0,0c5.618,9.302-17.901-0.401-21.583-1.953l0,0c0.208,1.086-0.196,2.519-0.121,4.087
				c-6.735,0.16-12.952-5.191-17.872-9.665c-0.836,12.12-12.878-3.625-14.933-7.292
				C189.259,407.559,188.162,403.496,188.362,396.123"/>
			<path fill="#30602C" d="M160.627,368.189c4.131,7.458,9.541,14.218,15.681,20.204c6.192,5.974,13.304,10.832,20.767,15.074
				c15.007,8.172,31.068,13.917,46.864,20.105c0.055,0.021,0.118-0.007,0.139-0.062c0.022-0.053-0.004-0.116-0.057-0.139
				c-15.569-6.767-31.433-12.984-46.113-21.419c-7.179-4.351-13.901-9.517-20.125-15.14c-6.29-5.592-11.82-11.984-16.977-18.743
				c-0.037-0.047-0.104-0.057-0.152-0.021C160.612,368.083,160.602,368.145,160.627,368.189z"/>
			<path fill="#30602C" d="M238.944,414.959c-1.368-0.355-2.73-0.604-4.102-0.922c-1.373-0.261-2.756-0.502-4.159-0.661
				c-2.797-0.333-5.688-0.395-8.568,0.143c-0.581,0.104-0.969,0.659-0.865,1.239c0.031,0.175,0.111,0.344,0.212,0.473
				c1.741,2.217,3.801,4.039,5.961,5.669c1.076,0.824,2.191,1.583,3.313,2.325c1.154,0.705,2.262,1.454,3.445,2.123
				c-3.583-4.064-7.882-7.377-11.007-11.424l-0.654,1.712c2.595-0.504,5.315-0.557,8.062-0.562l4.156,0.03
				C236.136,415.058,237.539,415.099,238.944,414.959z"/>
			<path fill="#30602C" d="M224.647,406.299c-3.014-0.2-5.985-0.592-9.01-0.667c-1.511-0.074-3.028-0.046-4.568,0.021
				c-1.544,0.136-3.081,0.238-4.749,0.918c-0.521,0.212-0.777,0.798-0.584,1.321l0.012,0.034c1.031,2.791,2.58,5.489,4.688,7.625
				c1.032,1.083,2.173,2.014,3.307,2.914c1.168,0.866,2.267,1.773,3.388,2.71c-0.757-1.254-1.746-2.348-2.67-3.464
				c-0.962-1.085-1.907-2.15-2.763-3.251c-1.706-2.208-2.992-4.649-3.925-7.277l-0.572,1.355c1.116-0.477,2.614-0.684,4.043-0.834
				c1.45-0.185,2.935-0.246,4.421-0.372c1.49-0.098,2.988-0.211,4.491-0.348C221.654,406.789,223.169,406.674,224.647,406.299z"/>
			<path fill="#30602C" d="M209.504,397.814c-2.678-0.262-5.368-0.096-8.013,0.215c-2.65,0.304-5.264,0.794-7.844,1.301
				c-0.581,0.111-0.963,0.673-0.852,1.254l0.019,0.083c0.662,2.415,1.713,4.778,3.023,6.862c1.292,2.095,2.608,4.094,3.948,6.178
				c-0.538-2.413-1.5-4.727-2.489-6.938c-0.984-2.212-1.822-4.372-2.413-6.669l-0.832,1.337
				C199.285,400.427,204.312,399.106,209.504,397.814z"/>
		</g>
		<g>
			<path fill="#C13B54" d="M1173.722,434.092c12.45-11.208,50.857-17.4,36.308-4.133c3.984,1.122,28.664,2.174,14.588,8.952
				c3.313,0.929,38.094,12.151,20.124,14.971c3.788,1.781,27.214,12.663,12.643,13.574c3.13,1.599,18.308,8.73,16.339,13.186
				c-2.161,5.12-15.528-0.793-19.511-1.909l0,0c7.812,12.936-24.894-0.559-30.015-2.716l0,0c0.289,1.51-0.272,3.503-0.168,5.684
				c-9.366,0.222-18.012-7.219-24.854-13.439c-1.162,16.853-17.908-5.041-20.766-10.14
				C1174.969,449.995,1173.442,444.345,1173.722,434.092"/>
			<path fill="#30602C" d="M1135.152,395.247c5.744,10.372,13.267,19.772,21.805,28.096c8.612,8.307,18.502,15.063,28.88,20.962
				c20.869,11.364,43.204,19.354,65.17,27.958c0.076,0.028,0.164-0.01,0.193-0.086c0.031-0.074-0.005-0.161-0.079-0.193
				c-21.651-9.41-43.711-18.056-64.125-29.786c-9.984-6.05-19.332-13.235-27.987-21.054c-8.746-7.776-16.437-16.665-23.607-26.063
				c-0.051-0.065-0.145-0.079-0.211-0.029C1135.131,395.099,1135.117,395.185,1135.152,395.247z"/>
			<path fill="#30602C" d="M1244.062,460.287c-1.902-0.494-3.797-0.84-5.704-1.282c-1.909-0.363-3.832-0.699-5.782-0.919
				c-3.891-0.462-7.91-0.549-11.916,0.199c-0.808,0.145-1.347,0.917-1.203,1.723c0.044,0.244,0.155,0.478,0.295,0.658
				c2.421,3.083,5.286,5.616,8.29,7.883c1.496,1.146,3.047,2.202,4.607,3.232c1.604,0.98,3.146,2.022,4.791,2.953
				c-4.981-5.652-10.961-10.259-15.307-15.887l-0.909,2.382c3.608-0.701,7.392-0.774,11.211-0.783l5.778,0.042
				C1240.156,460.423,1242.107,460.48,1244.062,460.287z"/>
			<path fill="#30602C" d="M1224.18,448.243c-4.19-0.278-8.322-0.824-12.529-0.927c-2.102-0.102-4.211-0.064-6.353,0.029
				c-2.146,0.189-4.284,0.331-6.604,1.277c-0.724,0.295-1.081,1.11-0.812,1.837l0.018,0.047c1.434,3.88,3.587,7.633,6.52,10.604
				c1.435,1.505,3.021,2.801,4.599,4.051c1.623,1.205,3.152,2.466,4.711,3.77c-1.054-1.744-2.429-3.264-3.714-4.818
				c-1.338-1.509-2.651-2.989-3.843-4.521c-2.371-3.07-4.16-6.464-5.459-10.119l-0.796,1.884c1.553-0.663,3.636-0.951,5.623-1.16
				c2.016-0.257,4.081-0.341,6.147-0.517c2.072-0.137,4.156-0.294,6.244-0.483C1220.018,448.924,1222.125,448.765,1224.18,448.243z"
				/>
			<path fill="#30602C" d="M1203.122,436.444c-3.724-0.364-7.465-0.134-11.144,0.299c-3.686,0.422-7.319,1.104-10.907,1.81
				c-0.809,0.154-1.339,0.936-1.185,1.745l0.026,0.115c0.92,3.358,2.381,6.645,4.204,9.542c1.797,2.914,3.627,5.693,5.49,8.592
				c-0.747-3.355-2.087-6.574-3.461-9.647c-1.368-3.077-2.533-6.08-3.354-9.274l-1.158,1.86
				C1188.91,440.078,1195.901,438.241,1203.122,436.444z"/>
		</g>
		<g>
			<path fill="#C13B54" d="M767.85,215.709c1.848-16.65,26.416-46.813,24.37-27.229c3.722-1.812,22.854-17.436,16.849-3.014
				c3.093-1.509,36.532-16.253,24.985-2.199c4.013-1.188,28.746-8.637,18.469,1.733c3.4-0.887,19.479-5.652,20.971-1.016
				c1.79,5.261-12.126,9.733-15.843,11.547l0,0c14.438,4.467-18.964,16.134-24.224,17.929l0,0c1.22,0.936,2.126,2.797,3.653,4.356
				c-6.848,6.394-18.253,6.585-27.499,6.487c10.338,13.361-16.728,8.143-22.252,6.234
				C779.354,226.758,774.458,223.553,767.85,215.709"/>
			<path fill="#30602C" d="M713.213,212.34c11.187,3.927,23.056,5.947,34.968,6.487c11.955,0.479,23.834-1.051,35.509-3.545
				c23.144-5.388,45.138-14.272,67.267-22.451c0.075-0.029,0.115-0.116,0.087-0.193c-0.025-0.076-0.111-0.116-0.188-0.091
				c-22.429,7.368-44.654,15.578-67.701,20.39c-11.48,2.12-23.239,2.968-34.903,2.884c-11.703,0.007-23.358-1.518-34.963-3.77
				c-0.082-0.016-0.16,0.037-0.177,0.118C713.098,212.243,713.145,212.317,713.213,212.34z"/>
			<path fill="#30602C" d="M837.805,188.503c-1.75,0.896-3.396,1.897-5.113,2.835c-1.667,0.998-3.327,2.025-4.931,3.158
				c-3.213,2.242-6.273,4.85-8.768,8.072c-0.507,0.646-0.396,1.581,0.247,2.087c0.195,0.153,0.435,0.253,0.658,0.295
				c3.858,0.693,7.683,0.68,11.434,0.376c1.879-0.139,3.739-0.381,5.591-0.649c1.851-0.334,3.693-0.582,5.542-0.98
				c-7.479-0.909-15.009-0.374-21.996-1.689l0.904,2.384c2.229-2.923,5.006-5.493,7.853-8.039l4.345-3.811
				C834.979,191.202,836.474,189.948,837.805,188.503z"/>
			<path fill="#30602C" d="M814.946,192.728c-3.314,2.579-6.764,4.919-9.975,7.639c-1.638,1.321-3.188,2.752-4.726,4.246
				c-1.478,1.569-2.979,3.096-4.083,5.345c-0.344,0.702-0.069,1.548,0.615,1.913l0.044,0.023c3.651,1.945,7.754,3.316,11.92,3.586
				c2.073,0.17,4.12,0.083,6.129-0.032c2.014-0.18,3.994-0.254,6.025-0.317c-1.947-0.603-3.984-0.824-5.978-1.129
				c-2.003-0.237-3.969-0.47-5.876-0.821c-3.812-0.716-7.405-2.062-10.806-3.929l0.658,1.937c0.719-1.527,2.083-3.127,3.429-4.605
				c1.334-1.532,2.82-2.968,4.248-4.474c1.456-1.48,2.908-2.982,4.342-4.513C812.29,196.004,813.758,194.483,814.946,192.728z"/>
			<path fill="#30602C" d="M791.373,197.917c-3.023,2.205-5.665,4.864-8.125,7.633c-2.472,2.766-4.732,5.692-6.943,8.604
				c-0.501,0.652-0.378,1.588,0.275,2.09l0.096,0.069c2.921,1.896,6.197,3.379,9.485,4.332c3.279,0.981,6.494,1.84,9.813,2.767
				c-2.789-2.01-5.93-3.522-9-4.905c-3.067-1.389-5.935-2.856-8.672-4.696l0.372,2.159
				C783.174,210.081,787.174,204.059,791.373,197.917z"/>
		</g>
		<path fill="#F3EDF1" d="M882.9,821.411c-12.72,0.112-25.557,0.296-37.949,3.17c-14.471,3.355-27.833,10.259-41.021,17.096
			c-15.746,8.164-31.491,16.328-47.237,24.492c-12.947,6.713-27.092,14.813-31.306,28.775c-1.914,6.34-1.206,13.862,3.369,18.651
			c2.512,2.629,5.933,4.211,9.408,5.281c17.808,5.485,37.089-1.297,53.338-10.417c16.25-9.12,31.396-20.763,49.229-26.17
			c52.275-15.853,110.068,32.192,159.505,8.093c3.014-1.469,6.021-3.328,7.708-6.225c1.524-2.619,1.787-5.763,1.94-8.789
			c0.674-13.357,1.815-21.648-7.098-30.714c-8.688-8.836-26.539-13.306-38.119-16.335C938.105,821.372,910.174,821.17,882.9,821.411
			z"/>
		<path fill="#F3EDF1" d="M505.517,120.333c-17.811,13.783-31.512,34.878-53.417,40.113c-8.482,2.027-17.751,1.479-25.407,5.656
			c-7.656,4.176-11.761,16.38-4.587,21.337c1.662,1.148,3.656,1.7,5.626,2.142c20.454,4.597,42.95-1.061,58.796-14.786
			c8.829-7.647,15.612-17.542,24.997-24.498c11.875-8.801,26.922-12.152,41.634-13.565c7.81-0.75,15.83-1.054,23.101-4.003
			s13.8-9.279,14.346-17.105C592.876,83.091,517.535,111.032,505.517,120.333z"/>
	</g>
</g>
</svg>
